<svg
    xmlns="http://www.w3.org/2000/svg"
    xmlns:xlink="http://www.w3.org/1999/xlink" version="1.1"
    x="0px" y="0px" viewBox="0 0 105 131.25" style="enable-background:new 0 0 105 105;"
    xml:space="preserve">
	<path fill="#ef4444" d="M102.5,28.8c0-11.6-22.4-21-50-21s-50,9.4-50,21c0,8.8,13,21,31.5,26.2L17.7,87.5c-0.7,1.3-0.1,2.9,1.2,3.6  c0.4,0.2,0.8,0.3,1.2,0.3c1,0,1.9-0.5,2.4-1.5l16.8-33.6c3.5,0.7,7.1,1.1,10.9,1.3L52,94.7c0.1,1.4,1.2,2.5,2.7,2.5c0,0,0.1,0,0.1,0  c1.5-0.1,2.6-1.3,2.5-2.8l-1.8-36.9c3.5-0.2,6.9-0.6,10.2-1.2l16.8,33.6c0.5,0.9,1.4,1.5,2.4,1.5c0.4,0,0.8-0.1,1.2-0.3  c1.3-0.7,1.9-2.3,1.2-3.6L71,55C89.5,49.7,102.5,37.6,102.5,28.8z M8.9,30.3c-1.4-1.3-2.2-2.8-2.2-4.3c0-4.2,6.2-8.5,15.9-11.5  C17.7,20.2,12.9,25.8,8.9,30.3z M10.6,31.7c2.5-2.9,5.7-6.5,9.5-10.9c2.1-2.5,4.2-4.9,6.2-7.3c3.1-0.8,6.4-1.4,10-2  c-7.3,8.5-14.7,17.2-20,23C14.1,33.7,12.2,32.7,10.6,31.7z M18.6,35.4c3-3.3,7.1-8,12.7-14.5c2.9-3.3,5.7-6.6,8.3-9.7  c2.9-0.3,5.8-0.5,8.9-0.7c-8.7,10.2-17.9,20.9-23.3,26.7C22.8,36.6,20.6,36,18.6,35.4z M27.7,37.7c3.1-3.4,7.8-8.6,14.8-16.8  c3.1-3.6,6.1-7.2,8.9-10.4c0.4,0,0.8,0,1.2,0c2.4,0,4.7,0.1,6.9,0.2c-9.6,11.3-19.8,23-24.7,28.2C32.4,38.5,30,38.1,27.7,37.7z   M37.6,39.1c3-3.2,8-8.8,16.2-18.3c3-3.4,5.9-6.9,8.5-10c2.6,0.2,5.1,0.5,7.6,0.9c-9.9,11.6-20.2,23.5-24.7,28  C42.7,39.6,40.1,39.4,37.6,39.1z M52.7,39.9c-1.5,0-3,0-4.4-0.1c3-3.1,8-8.8,16.8-19c2.5-3,5.1-5.9,7.4-8.7c2.5,0.4,4.8,1,7,1.5  c-9.5,11.1-19,22.1-23.1,26.2C55.1,39.8,53.9,39.9,52.7,39.9z M68.4,39c-2.8,0.3-5.8,0.5-8.8,0.7c3-3.1,8-8.8,16.7-18.9  c1.9-2.2,3.8-4.4,5.6-6.5c2.3,0.7,4.5,1.4,6.4,2.3C80.2,26,72.4,34.9,68.4,39z M71.8,38.6c3.1-3.3,7.9-8.8,15.7-17.8  c0.9-1.1,1.9-2.2,2.8-3.3c2.2,1.1,4,2.2,5.4,3.4c-5.4,6.3-10.5,12-14,15.8C78.7,37.5,75.4,38.1,71.8,38.6z M97.3,22.5  c0.9,1.2,1.4,2.3,1.4,3.5c0,3.8-5,7.1-12.9,9.6C88.5,32.6,92.2,28.4,97.3,22.5z"/>
</svg>